<svg width="202" height="40" viewBox="0 0 202 40" fill="none" xmlns="http://www.w3.org/2000/svg">
<path fill-rule="evenodd" clip-rule="evenodd" d="M20 37.5377V35.335C20.0061 35.1025 20.1346 34.8945 20.3243 34.7844L31.5579 28.2436C33.8279 26.9343 32.9101 24.805 31.2214 25.7779L23.8057 30.0364C19.9816 32.2268 18.6111 22.8043 22.6555 20.4731L32.7816 14.6299L32.8 12.7943L20 5.40311L16.8 7.25091L25.4455 12.2436C25.6291 12.3599 25.7514 12.5618 25.7514 12.7943C25.7514 13.0329 25.6229 13.241 25.4333 13.3572L23.512 14.4647C23.4203 14.5136 23.3101 14.5442 23.2 14.5442C23.0776 14.5442 22.9675 14.5075 22.8696 14.4524L13.6 9.09871L7.2 12.7943V14.6421L13.8264 18.4417C21.2727 22.7431 18.4826 37.7702 12.309 34.2031L4.26922 29.5775C4.0979 29.4612 4.00612 29.2654 4 29.0574V20.8157C4 20.3201 4.56291 19.9836 4.98509 20.2161L6.74111 21.2257C7.05315 21.4092 7.21836 21.8375 7.21836 22.1924L7.2 27.5767L12.5966 30.6911C15.0929 32.135 15.7598 23.2815 11.8929 21.0482L4.30593 16.6674C4.11013 16.5511 4.00612 16.3431 4 16.1167V11.3197C4 11.0995 4.11014 10.9037 4.28145 10.7874L19.6757 1.89718C19.7675 1.84212 19.8837 1.81152 20 1.81152C20.1163 1.81152 20.2203 1.84212 20.312 1.89106L35.7063 10.7752C35.8837 10.8914 36 11.0872 36 11.3136L35.9878 16.1534C35.9694 16.3981 35.8715 16.5878 35.6757 16.7102L24.7419 23.0245C22.6493 24.2299 23.2551 26.9587 24.6868 26.1389L31.5824 22.2108C35.8532 19.7817 38.2088 28.1519 32.8184 31.2846L20.9545 38.1129C20.5262 38.3392 20 38.0333 20 37.5377Z" fill="white"/>
<path d="M50.856 26L50.496 24.336H52.072C52.6907 24.336 53.2373 24.1867 53.712 23.888C54.192 23.5893 54.5653 23.1307 54.832 22.512C55.104 21.888 55.24 21.0933 55.24 20.128C55.24 19.1093 55.1147 18.3013 54.864 17.704C54.6187 17.1067 54.2587 16.68 53.784 16.424C53.3147 16.1627 52.7413 16.032 52.064 16.032H50.432L50.856 14.368H51.936C53.5413 14.368 54.7947 14.8267 55.696 15.744C56.6027 16.656 57.056 18.112 57.056 20.112C57.056 21.408 56.8293 22.4933 56.376 23.368C55.928 24.2373 55.32 24.8933 54.552 25.336C53.784 25.7787 52.9173 26 51.952 26H50.856ZM49.08 26V14.368H50.856V26H49.08ZM61.4338 26.096C60.6338 26.096 59.9938 25.8747 59.5138 25.432C59.0338 24.9893 58.7938 24.3893 58.7938 23.632C58.7938 22.9867 59.0044 22.4533 59.4258 22.032C59.8471 21.6107 60.4738 21.3253 61.3058 21.176C61.7004 21.1067 62.0898 21.048 62.4738 21C62.8631 20.952 63.2071 20.9147 63.5058 20.888C63.8098 20.856 64.0284 20.8347 64.1618 20.824V20.152C64.1618 19.576 64.0258 19.1707 63.7538 18.936C63.4871 18.696 63.0764 18.576 62.5218 18.576C61.9671 18.576 61.5298 18.688 61.2098 18.912C60.8951 19.1307 60.7431 19.5733 60.7538 20.24H59.1298C59.0711 19.5947 59.1778 19.0373 59.4498 18.568C59.7218 18.0987 60.1218 17.7387 60.6498 17.488C61.1831 17.232 61.8098 17.104 62.5298 17.104C63.6071 17.104 64.4311 17.376 65.0018 17.92C65.5778 18.4587 65.8658 19.2693 65.8658 20.352V26H64.1618V24.056C64.0604 24.4453 63.8738 24.7947 63.6018 25.104C63.3351 25.408 63.0124 25.6507 62.6338 25.832C62.2604 26.008 61.8604 26.096 61.4338 26.096ZM62.0418 24.704C62.3298 24.704 62.6284 24.648 62.9378 24.536C63.2471 24.4187 63.5164 24.2693 63.7458 24.088C63.9804 23.9013 64.1191 23.704 64.1618 23.496V21.864C64.0871 21.8693 63.9484 21.888 63.7458 21.92C63.5431 21.9467 63.3271 21.9787 63.0978 22.016C62.8684 22.048 62.6658 22.0827 62.4898 22.12C61.8178 22.2533 61.3484 22.424 61.0818 22.632C60.8204 22.84 60.6898 23.1307 60.6898 23.504C60.6898 23.872 60.8044 24.1653 61.0338 24.384C61.2684 24.5973 61.6044 24.704 62.0418 24.704ZM72.9395 26.128C72.4968 26.128 72.0675 26.0533 71.6515 25.904C71.2355 25.7547 70.8915 25.4987 70.6195 25.136C70.3528 24.768 70.2195 24.264 70.2195 23.624V20.112C70.2195 20 70.2435 19.8507 70.2915 19.664C70.3448 19.4773 70.4328 19.304 70.5555 19.144C70.6835 18.984 70.8622 18.8907 71.0915 18.864L70.2195 17.616L70.2595 17.392L70.6835 14.208H72.0915V23.192C72.0915 23.736 72.2035 24.0827 72.4275 24.232C72.6568 24.3813 73.0195 24.456 73.5155 24.456C73.8088 24.456 74.0728 24.44 74.3075 24.408C74.5422 24.3707 74.7582 24.3227 74.9555 24.264C75.1582 24.2 75.3502 24.1307 75.5315 24.056V25.744C75.1582 25.8773 74.7715 25.9733 74.3715 26.032C73.9715 26.096 73.4942 26.128 72.9395 26.128ZM68.3395 18.864V17.264H74.8835V18.864H68.3395ZM80.6213 26.096C79.8213 26.096 79.1813 25.8747 78.7013 25.432C78.2213 24.9893 77.9813 24.3893 77.9813 23.632C77.9813 22.9867 78.1919 22.4533 78.6133 22.032C79.0346 21.6107 79.6613 21.3253 80.4933 21.176C80.8879 21.1067 81.2773 21.048 81.6613 21C82.0506 20.952 82.3946 20.9147 82.6933 20.888C82.9973 20.856 83.2159 20.8347 83.3493 20.824V20.152C83.3493 19.576 83.2133 19.1707 82.9413 18.936C82.6746 18.696 82.2639 18.576 81.7093 18.576C81.1546 18.576 80.7173 18.688 80.3973 18.912C80.0826 19.1307 79.9306 19.5733 79.9413 20.24H78.3173C78.2586 19.5947 78.3653 19.0373 78.6373 18.568C78.9093 18.0987 79.3093 17.7387 79.8373 17.488C80.3706 17.232 80.9973 17.104 81.7173 17.104C82.7946 17.104 83.6186 17.376 84.1893 17.92C84.7653 18.4587 85.0533 19.2693 85.0533 20.352V26H83.3493V24.056C83.2479 24.4453 83.0613 24.7947 82.7893 25.104C82.5226 25.408 82.1999 25.6507 81.8213 25.832C81.4479 26.008 81.0479 26.096 80.6213 26.096ZM81.2293 24.704C81.5173 24.704 81.8159 24.648 82.1253 24.536C82.4346 24.4187 82.7039 24.2693 82.9333 24.088C83.1679 23.9013 83.3066 23.704 83.3493 23.496V21.864C83.2746 21.8693 83.1359 21.888 82.9333 21.92C82.7306 21.9467 82.5146 21.9787 82.2853 22.016C82.0559 22.048 81.8533 22.0827 81.6773 22.12C81.0053 22.2533 80.5359 22.424 80.2693 22.632C80.0079 22.84 79.8773 23.1307 79.8773 23.504C79.8773 23.872 79.9919 24.1653 80.2213 24.384C80.4559 24.5973 80.7919 24.704 81.2293 24.704ZM87.679 26V14.368H94.783V15.888H88.679L89.479 15.144V19.928L88.687 19.352H94.103V20.872H89.239L89.479 20.408V26H87.679ZM100.769 26.12C99.9954 26.12 99.3208 25.9493 98.7448 25.608C98.1688 25.2613 97.7208 24.752 97.4008 24.08C97.0808 23.4027 96.9208 22.5707 96.9208 21.584C96.9208 20.6507 97.0888 19.8507 97.4248 19.184C97.7608 18.512 98.2194 17.9973 98.8008 17.64C99.3821 17.2773 100.038 17.096 100.769 17.096C101.563 17.096 102.249 17.2773 102.825 17.64C103.401 17.9973 103.843 18.512 104.153 19.184C104.462 19.8507 104.617 20.6507 104.617 21.584C104.617 22.5707 104.443 23.4027 104.097 24.08C103.755 24.752 103.294 25.2613 102.713 25.608C102.131 25.9493 101.483 26.12 100.769 26.12ZM100.769 24.576C101.366 24.576 101.851 24.3413 102.225 23.872C102.603 23.3973 102.793 22.6347 102.793 21.584C102.793 20.6133 102.611 19.88 102.249 19.384C101.891 18.888 101.398 18.64 100.769 18.64C100.166 18.64 99.6781 18.8853 99.3048 19.376C98.9314 19.8613 98.7448 20.5973 98.7448 21.584C98.7448 22.5813 98.9314 23.3307 99.3048 23.832C99.6834 24.328 100.171 24.576 100.769 24.576ZM106.531 26V24.592H112.763V26H106.531ZM106.491 18.896V17.248H109.115V18.896H106.491ZM108.147 25.84V19.664C108.147 19.3973 108.2 19.2107 108.307 19.104C108.413 18.9973 108.595 18.928 108.851 18.896L108.147 18.224V17.248H109.667L109.811 19.6C109.933 19.088 110.136 18.6453 110.419 18.272C110.707 17.8933 111.045 17.6027 111.435 17.4C111.829 17.192 112.237 17.088 112.659 17.088C113.368 17.088 113.912 17.3573 114.291 17.896C114.669 18.4293 114.84 19.2533 114.803 20.368H113.059C113.048 19.7867 112.957 19.3733 112.787 19.128C112.616 18.8773 112.296 18.752 111.827 18.752C111.464 18.752 111.096 18.8827 110.723 19.144C110.355 19.4053 110.093 19.704 109.939 20.04V23.928C109.939 24.12 109.896 24.2693 109.811 24.376C109.731 24.4773 109.611 24.5493 109.451 24.592L109.939 24.936V25.84H108.147ZM120.332 26.152C119.5 26.152 118.786 25.9627 118.188 25.584C117.591 25.2 117.13 24.6667 116.804 23.984C116.484 23.3013 116.324 22.5093 116.324 21.608C116.324 20.6587 116.487 19.848 116.812 19.176C117.143 18.504 117.596 17.992 118.172 17.64C118.748 17.2827 119.41 17.104 120.156 17.104C120.919 17.104 121.562 17.2613 122.084 17.576C122.607 17.8907 122.999 18.3067 123.26 18.824C123.527 19.336 123.652 19.8987 123.636 20.512H121.892C121.892 20.2347 121.855 19.9813 121.78 19.752C121.711 19.5227 121.604 19.3227 121.46 19.152C121.316 18.9813 121.135 18.8507 120.916 18.76C120.703 18.664 120.452 18.616 120.164 18.616C119.434 18.6107 118.911 18.88 118.596 19.424C118.282 19.968 118.124 20.6827 118.124 21.568C118.124 22.5867 118.311 23.352 118.684 23.864C119.058 24.376 119.623 24.632 120.38 24.632C120.663 24.632 120.919 24.5867 121.148 24.496C121.378 24.4 121.562 24.2667 121.7 24.096C121.844 23.9253 121.924 23.7253 121.94 23.496H123.628C123.644 24.0507 123.495 24.528 123.18 24.928C122.866 25.3227 122.455 25.6267 121.948 25.84C121.442 26.048 120.903 26.152 120.332 26.152ZM129.87 26.12C129.107 26.12 128.425 25.9493 127.822 25.608C127.225 25.2613 126.753 24.752 126.406 24.08C126.059 23.408 125.886 22.584 125.886 21.608C125.886 20.648 126.051 19.832 126.382 19.16C126.713 18.488 127.161 17.976 127.726 17.624C128.297 17.272 128.937 17.096 129.646 17.096C130.729 17.096 131.606 17.4453 132.278 18.144C132.95 18.8427 133.286 19.8453 133.286 21.152C133.286 21.3333 133.281 21.4773 133.27 21.584C133.259 21.6853 133.251 21.8133 133.246 21.968H127.63C127.641 22.6027 127.755 23.1147 127.974 23.504C128.198 23.888 128.481 24.168 128.822 24.344C129.169 24.5147 129.529 24.6 129.902 24.6C130.313 24.6 130.643 24.528 130.894 24.384C131.145 24.24 131.337 23.952 131.47 23.52H133.102C133.043 24.0747 132.87 24.5467 132.582 24.936C132.299 25.3253 131.926 25.6213 131.462 25.824C130.998 26.0213 130.467 26.12 129.87 26.12ZM127.638 21.304C127.681 21.0693 127.779 20.9093 127.934 20.824C128.089 20.7387 128.302 20.696 128.574 20.696H131.47C131.454 20.0187 131.307 19.504 131.03 19.152C130.753 18.7947 130.313 18.616 129.71 18.616C129.033 18.616 128.518 18.8587 128.166 19.344C127.814 19.8293 127.638 20.4827 127.638 21.304ZM148.818 26.16C148.002 26.16 147.282 26.0373 146.658 25.792C146.034 25.5413 145.543 25.1413 145.186 24.592C144.834 24.0373 144.65 23.3067 144.634 22.4H146.378C146.394 22.9653 146.522 23.4053 146.762 23.72C147.002 24.0347 147.311 24.256 147.69 24.384C148.068 24.5067 148.471 24.568 148.898 24.568C149.372 24.568 149.772 24.496 150.098 24.352C150.423 24.208 150.668 24.0187 150.834 23.784C151.004 23.544 151.09 23.2907 151.09 23.024C151.09 22.6293 150.999 22.312 150.818 22.072C150.636 21.8267 150.354 21.616 149.97 21.44C149.586 21.264 149.092 21.0853 148.49 20.904C147.844 20.7067 147.263 20.4453 146.746 20.12C146.228 19.7893 145.82 19.3893 145.522 18.92C145.223 18.4507 145.074 17.912 145.074 17.304C145.074 16.6 145.25 16.0187 145.602 15.56C145.954 15.096 146.418 14.752 146.994 14.528C147.575 14.2987 148.199 14.184 148.866 14.184C149.874 14.184 150.706 14.4587 151.362 15.008C152.018 15.5573 152.412 16.3973 152.546 17.528H150.874C150.826 17.16 150.714 16.8453 150.538 16.584C150.362 16.3227 150.127 16.1227 149.834 15.984C149.546 15.8453 149.196 15.776 148.786 15.776C148.199 15.776 147.719 15.8987 147.346 16.144C146.972 16.384 146.786 16.7467 146.786 17.232C146.786 17.568 146.842 17.8613 146.954 18.112C147.066 18.3573 147.29 18.5867 147.626 18.8C147.962 19.008 148.463 19.2293 149.13 19.464C149.61 19.6293 150.071 19.8053 150.514 19.992C150.956 20.1733 151.351 20.3893 151.698 20.64C152.044 20.8907 152.319 21.2 152.522 21.568C152.724 21.9307 152.826 22.3813 152.826 22.92C152.831 23.592 152.66 24.1707 152.314 24.656C151.967 25.1413 151.49 25.5147 150.882 25.776C150.279 26.032 149.591 26.16 148.818 26.16ZM159.283 26.128C158.841 26.128 158.411 26.0533 157.995 25.904C157.579 25.7547 157.235 25.4987 156.963 25.136C156.697 24.768 156.563 24.264 156.563 23.624V20.112C156.563 20 156.587 19.8507 156.635 19.664C156.689 19.4773 156.777 19.304 156.899 19.144C157.027 18.984 157.206 18.8907 157.435 18.864L156.563 17.616L156.603 17.392L157.027 14.208H158.435V23.192C158.435 23.736 158.547 24.0827 158.771 24.232C159.001 24.3813 159.363 24.456 159.859 24.456C160.153 24.456 160.417 24.44 160.651 24.408C160.886 24.3707 161.102 24.3227 161.299 24.264C161.502 24.2 161.694 24.1307 161.875 24.056V25.744C161.502 25.8773 161.115 25.9733 160.715 26.032C160.315 26.096 159.838 26.128 159.283 26.128ZM154.683 18.864V17.264H161.227V18.864H154.683ZM167.077 26.176C166.352 26.176 165.754 25.912 165.285 25.384C164.816 24.8507 164.581 24.0987 164.581 23.128V17.264H166.365V22.832C166.365 23.4453 166.474 23.88 166.693 24.136C166.917 24.3867 167.282 24.512 167.789 24.512C168.2 24.512 168.57 24.3947 168.901 24.16C169.237 23.9253 169.472 23.6613 169.605 23.368V17.264H171.405V26H169.877L169.669 22.704L169.813 23.368C169.749 23.848 169.624 24.3013 169.437 24.728C169.25 25.1547 168.968 25.504 168.589 25.776C168.216 26.0427 167.712 26.176 167.077 26.176ZM176.895 26.096C176.255 26.096 175.689 25.92 175.199 25.568C174.713 25.216 174.332 24.704 174.055 24.032C173.783 23.3547 173.647 22.5333 173.647 21.568C173.647 20.6613 173.804 19.8747 174.119 19.208C174.439 18.5413 174.868 18.024 175.407 17.656C175.951 17.288 176.556 17.104 177.223 17.104C177.601 17.104 177.935 17.1813 178.223 17.336C178.511 17.4853 178.751 17.6907 178.943 17.952C179.135 18.2133 179.273 18.5147 179.359 18.856L179.935 19.112L179.319 19.968C179.26 19.648 179.143 19.3893 178.967 19.192C178.796 18.9947 178.601 18.8507 178.383 18.76C178.169 18.6693 177.969 18.624 177.783 18.624C177.1 18.624 176.545 18.888 176.119 19.416C175.692 19.9387 175.479 20.664 175.479 21.592C175.479 22.216 175.559 22.7547 175.719 23.208C175.879 23.6613 176.111 24.0133 176.415 24.264C176.719 24.5093 177.089 24.632 177.527 24.632C177.745 24.632 177.975 24.5867 178.215 24.496C178.455 24.4 178.671 24.248 178.863 24.04C179.06 23.8267 179.193 23.5467 179.263 23.2L179.343 23.792L179.271 24.048C179.223 24.4107 179.081 24.7493 178.847 25.064C178.617 25.3733 178.329 25.624 177.983 25.816C177.641 26.0027 177.279 26.096 176.895 26.096ZM179.287 26L179.263 23.2V13.552H181.055V26H179.287ZM186.977 25.76V19.888C186.977 19.6533 187.027 19.4347 187.129 19.232C187.23 19.0293 187.451 18.9173 187.793 18.896L186.977 18.536L186.889 17.84L188.745 17.272L188.713 25.76H186.977ZM184.241 26V24.592H191.193V26H184.241ZM183.841 18.896V17.272H188.745L188.145 18.896H183.841ZM187.753 15.808C187.39 15.808 187.081 15.6853 186.825 15.44C186.569 15.1947 186.441 14.872 186.441 14.472C186.441 14.0613 186.569 13.7307 186.825 13.48C187.081 13.2293 187.39 13.104 187.753 13.104C188.115 13.104 188.425 13.2293 188.681 13.48C188.937 13.7307 189.065 14.0613 189.065 14.472C189.065 14.872 188.937 15.1947 188.681 15.44C188.425 15.6853 188.115 15.808 187.753 15.808ZM196.706 26.12C195.933 26.12 195.258 25.9493 194.682 25.608C194.106 25.2613 193.658 24.752 193.338 24.08C193.018 23.4027 192.858 22.5707 192.858 21.584C192.858 20.6507 193.026 19.8507 193.362 19.184C193.698 18.512 194.157 17.9973 194.738 17.64C195.32 17.2773 195.976 17.096 196.706 17.096C197.501 17.096 198.186 17.2773 198.762 17.64C199.338 17.9973 199.781 18.512 200.09 19.184C200.4 19.8507 200.554 20.6507 200.554 21.584C200.554 22.5707 200.381 23.4027 200.034 24.08C199.693 24.752 199.232 25.2613 198.65 25.608C198.069 25.9493 197.421 26.12 196.706 26.12ZM196.706 24.576C197.304 24.576 197.789 24.3413 198.162 23.872C198.541 23.3973 198.73 22.6347 198.73 21.584C198.73 20.6133 198.549 19.88 198.186 19.384C197.829 18.888 197.336 18.64 196.706 18.64C196.104 18.64 195.616 18.8853 195.242 19.376C194.869 19.8613 194.682 20.5973 194.682 21.584C194.682 22.5813 194.869 23.3307 195.242 23.832C195.621 24.328 196.109 24.576 196.706 24.576Z" fill="white"/>
</svg>
