<svg width="32" height="38" viewBox="0 0 32 38" fill="none" xmlns="http://www.w3.org/2000/svg">
<path fill-rule="evenodd" clip-rule="evenodd" d="M16 36.5377V34.335C16.0061 34.1025 16.1346 33.8945 16.3243 33.7844L27.5579 27.2436C29.8279 25.9343 28.9101 23.805 27.2214 24.7779L19.8057 29.0364C15.9816 31.2268 14.6111 21.8043 18.6555 19.4731L28.7816 13.6299L28.8 11.7943L16 4.40311L12.8 6.25091L21.4455 11.2436C21.6291 11.3599 21.7514 11.5618 21.7514 11.7943C21.7514 12.0329 21.6229 12.241 21.4333 12.3572L19.512 13.4647C19.4203 13.5136 19.3101 13.5442 19.2 13.5442C19.0776 13.5442 18.9675 13.5075 18.8696 13.4524L9.6 8.09871L3.2 11.7943V13.6421L9.8264 17.4417C17.2727 21.7431 14.4826 36.7702 8.309 33.2031L0.26922 28.5775C0.0978999 28.4612 0.00612 28.2654 0 28.0574V19.8157C0 19.3201 0.56291 18.9836 0.98509 19.2161L2.74111 20.2257C3.05315 20.4092 3.21836 20.8375 3.21836 21.1924L3.2 26.5767L8.5966 29.6911C11.0929 31.135 11.7598 22.2815 7.8929 20.0482L0.30593 15.6674C0.11013 15.5511 0.00612 15.3431 0 15.1167V10.3197C0 10.0995 0.11014 9.9037 0.28145 9.7874L15.6757 0.897183C15.7675 0.842123 15.8837 0.811523 16 0.811523C16.1163 0.811523 16.2203 0.842123 16.312 0.891063L31.7063 9.7752C31.8837 9.8914 32 10.0872 32 10.3136L31.9878 15.1534C31.9694 15.3981 31.8715 15.5878 31.6757 15.7102L20.7419 22.0245C18.6493 23.2299 19.2551 25.9587 20.6868 25.1389L27.5824 21.2108C31.8532 18.7817 34.2088 27.1519 28.8184 30.2846L16.9545 37.1129C16.5262 37.3392 16 37.0333 16 36.5377Z" fill="white"/>
</svg>
