<svg width="43" height="43" viewBox="0 0 43 43" fill="none" xmlns="http://www.w3.org/2000/svg">
<path fill-rule="evenodd" clip-rule="evenodd" d="M24.3889 2.44507C20.7027 1.88216 16.9324 2.40198 13.536 3.94137C10.1397 5.48076 7.26357 7.97345 5.25714 11.1165C3.2507 14.2596 2.20034 17.9178 2.23368 21.6466C2.26315 24.9426 3.13826 28.1684 4.76539 31.0184C4.2796 31.8142 3.99968 32.7494 3.99968 33.75C3.99968 36.6495 6.35019 39 9.24968 39C12.1492 39 14.4997 36.6495 14.4997 33.75C14.4997 30.8505 12.1492 28.5 9.24968 28.5C8.64864 28.5 8.07118 28.601 7.53336 28.787C6.37642 26.58 5.75596 24.1225 5.73354 21.6153C5.70626 18.5645 6.56565 15.5714 8.20728 12.9998C9.8489 10.4282 12.2021 8.38871 14.9809 7.12921C17.7597 5.86971 20.8445 5.4444 23.8605 5.90496C24.8159 6.05086 25.7087 5.39462 25.8546 4.43919C26.0005 3.48377 25.3443 2.59097 24.3889 2.44507ZM7.49968 33.75C7.49968 33.2365 7.72088 32.7746 8.07319 32.4545L8.0816 32.4469C8.39138 32.169 8.8008 32 9.24968 32C10.2162 32 10.9997 32.7835 10.9997 33.75C10.9997 34.7165 10.2162 35.5 9.24968 35.5C8.28319 35.5 7.49968 34.7165 7.49968 33.75Z" fill="#2673FD"/>
<path fill-rule="evenodd" clip-rule="evenodd" d="M38.9997 9.25002C38.9997 10.2496 38.7203 11.1839 38.2355 11.9792C39.8787 14.8442 40.761 18.0909 40.7865 21.4082C40.8154 25.159 39.7479 28.8366 37.7151 31.989C35.6823 35.1413 32.7728 37.6311 29.3442 39.1523C25.9156 40.6736 22.1173 41.16 18.4159 40.5519C17.4622 40.3951 16.8161 39.495 16.9728 38.5413C17.1295 37.5876 18.0297 36.9415 18.9834 37.0982C22.0118 37.5958 25.1195 37.1978 27.9247 35.9531C30.73 34.7085 33.1104 32.6714 34.7736 30.0922C36.4368 27.513 37.3103 24.504 37.2866 21.4352C37.2672 18.909 36.6405 16.4327 35.4697 14.2118C34.9308 14.3986 34.3521 14.5 33.7497 14.5C30.8502 14.5 28.4997 12.1495 28.4997 9.25002C28.4997 6.35052 30.8502 4.00002 33.7497 4.00002C36.6492 4.00002 38.9997 6.35052 38.9997 9.25002ZM31.9997 9.25002C31.9997 8.28352 32.7832 7.50002 33.7497 7.50002C34.7162 7.50002 35.4997 8.28352 35.4997 9.25002C35.4997 9.76385 35.2782 10.226 34.9256 10.5461L34.9167 10.5541C34.6071 10.8314 34.1981 11 33.7497 11C32.7832 11 31.9997 10.2165 31.9997 9.25002Z" fill="#2673FD"/>
<path fill-rule="evenodd" clip-rule="evenodd" d="M21.4997 14.5C17.6337 14.5 14.4997 17.634 14.4997 21.5C14.4997 25.366 17.6337 28.5 21.4997 28.5C25.3657 28.5 28.4997 25.366 28.4997 21.5C28.4997 17.634 25.3657 14.5 21.4997 14.5ZM17.9997 21.5C17.9997 19.567 19.5667 18 21.4997 18C23.4327 18 24.9997 19.567 24.9997 21.5C24.9997 23.433 23.4327 25 21.4997 25C19.5667 25 17.9997 23.433 17.9997 21.5Z" fill="#2673FD"/>
</svg>
