<svg width="169" height="28" viewBox="0 0 169 28" fill="none" xmlns="http://www.w3.org/2000/svg">
<path fill-rule="evenodd" clip-rule="evenodd" d="M12.3138 27.4958L12.3193 25.8034C12.3193 25.6221 12.4182 25.4627 12.5665 25.3803L21.2153 20.3471C22.9571 19.3361 22.2538 17.6986 20.9515 18.4459L15.248 21.7263C12.3028 23.4132 11.2478 16.1601 14.3578 14.3633L22.1549 9.8631L22.1714 8.45644L12.3193 2.76387L9.85211 4.18701L16.5118 8.03334C16.6491 8.12126 16.7425 8.27511 16.7425 8.45644C16.7425 8.63777 16.6436 8.79712 16.4953 8.88503L15.0227 9.73672H15.0172C14.9458 9.77518 14.8633 9.79716 14.7809 9.79716C14.6875 9.79716 14.5996 9.77518 14.5282 9.73122L7.39046 5.61015L2.46165 8.45644V9.87409L7.56629 12.8028C13.2973 16.1106 11.1489 27.6771 6.4014 24.9297L0.208801 21.3746C0.0769267 21.2812 0.00549476 21.1329 0 20.968V14.6271C0 14.2424 0.434086 13.9842 0.763772 14.1655L2.10999 14.9458C2.35176 15.0831 2.47814 15.4128 2.47814 15.6875L2.46165 19.8306L6.61569 22.2318C8.54436 23.3418 9.04988 16.5228 6.07171 14.8084L0.236275 11.4346C0.0879162 11.3412 0.00549476 11.1818 0 11.0115V7.31902C0 7.14869 0.0879162 6.99483 0.219791 6.90692L12.0665 0.0659372C12.1379 0.0219791 12.2258 0 12.3138 0C12.4017 0 12.4841 0.021979 12.5555 0.0604424L24.4077 6.90142C24.5396 6.98934 24.6275 7.14319 24.633 7.31353L24.622 11.039C24.611 11.2313 24.5341 11.3742 24.3803 11.4676L15.9623 16.3304C14.3578 17.259 14.8249 19.358 15.9238 18.7207L21.2318 15.704C24.5176 13.8358 26.3309 20.2757 22.1824 22.6824L13.0501 27.9409C12.7204 28.1167 12.3193 27.8804 12.3193 27.4958H12.3138Z" fill="#19191C"/>
<path d="M35.132 19.5L34.817 18.044H36.196C36.7374 18.044 37.2157 17.9133 37.631 17.652C38.051 17.3907 38.3777 16.9893 38.611 16.448C38.849 15.902 38.968 15.2067 38.968 14.362C38.968 13.4707 38.8584 12.7637 38.639 12.241C38.4244 11.7183 38.1094 11.345 37.694 11.121C37.2834 10.8923 36.7817 10.778 36.189 10.778H34.761L35.132 9.322H36.077C37.4817 9.322 38.5784 9.72333 39.367 10.526C40.1604 11.324 40.557 12.598 40.557 14.348C40.557 15.482 40.3587 16.4317 39.962 17.197C39.57 17.9577 39.038 18.5317 38.366 18.919C37.694 19.3063 36.9357 19.5 36.091 19.5H35.132ZM33.578 19.5V9.322H35.132V19.5H33.578Z" fill="#19191C"/>
<path d="M44.5276 19.584C43.8276 19.584 43.2676 19.3903 42.8476 19.003C42.4276 18.6157 42.2176 18.0907 42.2176 17.428C42.2176 16.8633 42.4019 16.3967 42.7706 16.028C43.1392 15.6593 43.6876 15.4097 44.4156 15.279C44.7609 15.2183 45.1016 15.167 45.4376 15.125C45.7782 15.083 46.0792 15.0503 46.3406 15.027C46.6066 14.999 46.7979 14.9803 46.9146 14.971V14.383C46.9146 13.879 46.7956 13.5243 46.5576 13.319C46.3242 13.109 45.9649 13.004 45.4796 13.004C44.9942 13.004 44.6116 13.102 44.3316 13.298C44.0562 13.4893 43.9232 13.8767 43.9326 14.46H42.5116C42.4602 13.8953 42.5536 13.4077 42.7916 12.997C43.0296 12.5863 43.3796 12.2713 43.8416 12.052C44.3082 11.828 44.8566 11.716 45.4866 11.716C46.4292 11.716 47.1502 11.954 47.6496 12.43C48.1536 12.9013 48.4056 13.6107 48.4056 14.558V19.5H46.9146V17.799C46.8259 18.1397 46.6626 18.4453 46.4246 18.716C46.1912 18.982 45.9089 19.1943 45.5776 19.353C45.2509 19.507 44.9009 19.584 44.5276 19.584ZM45.0596 18.366C45.3116 18.366 45.5729 18.317 45.8436 18.219C46.1142 18.1163 46.3499 17.9857 46.5506 17.827C46.7559 17.6637 46.8772 17.491 46.9146 17.309V15.881C46.8492 15.8857 46.7279 15.902 46.5506 15.93C46.3732 15.9533 46.1842 15.9813 45.9836 16.014C45.7829 16.042 45.6056 16.0723 45.4516 16.105C44.8636 16.2217 44.4529 16.371 44.2196 16.553C43.9909 16.735 43.8766 16.9893 43.8766 17.316C43.8766 17.638 43.9769 17.8947 44.1776 18.086C44.3829 18.2727 44.6769 18.366 45.0596 18.366Z" fill="#19191C"/>
<path d="M54.7351 19.612C54.3478 19.612 53.9721 19.5467 53.6081 19.416C53.2441 19.2853 52.9431 19.0613 52.7051 18.744C52.4718 18.422 52.3551 17.981 52.3551 17.421V14.348C52.3551 14.25 52.3761 14.1193 52.4181 13.956C52.4648 13.7927 52.5418 13.641 52.6491 13.501C52.7611 13.361 52.9174 13.2793 53.1181 13.256L52.3551 12.164L52.3901 11.968L52.7611 9.182H53.9931V17.043C53.9931 17.519 54.0911 17.8223 54.2871 17.953C54.4878 18.0837 54.8051 18.149 55.2391 18.149C55.4958 18.149 55.7268 18.135 55.9321 18.107C56.1374 18.0743 56.3264 18.0323 56.4991 17.981C56.6764 17.925 56.8444 17.8643 57.0031 17.799V19.276C56.6764 19.3927 56.3381 19.4767 55.9881 19.528C55.6381 19.584 55.2204 19.612 54.7351 19.612ZM50.7101 13.256V11.856H56.4361V13.256H50.7101Z" fill="#19191C"/>
<path d="M61.5966 19.584C60.8966 19.584 60.3366 19.3903 59.9166 19.003C59.4966 18.6157 59.2866 18.0907 59.2866 17.428C59.2866 16.8633 59.471 16.3967 59.8396 16.028C60.2083 15.6593 60.7566 15.4097 61.4846 15.279C61.83 15.2183 62.1706 15.167 62.5066 15.125C62.8473 15.083 63.1483 15.0503 63.4096 15.027C63.6756 14.999 63.867 14.9803 63.9836 14.971V14.383C63.9836 13.879 63.8646 13.5243 63.6266 13.319C63.3933 13.109 63.034 13.004 62.5486 13.004C62.0633 13.004 61.6806 13.102 61.4006 13.298C61.1253 13.4893 60.9923 13.8767 61.0016 14.46H59.5806C59.5293 13.8953 59.6226 13.4077 59.8606 12.997C60.0986 12.5863 60.4486 12.2713 60.9106 12.052C61.3773 11.828 61.9256 11.716 62.5556 11.716C63.4983 11.716 64.2193 11.954 64.7186 12.43C65.2226 12.9013 65.4746 13.6107 65.4746 14.558V19.5H63.9836V17.799C63.895 18.1397 63.7316 18.4453 63.4936 18.716C63.2603 18.982 62.978 19.1943 62.6466 19.353C62.32 19.507 61.97 19.584 61.5966 19.584ZM62.1286 18.366C62.3806 18.366 62.642 18.317 62.9126 18.219C63.1833 18.1163 63.419 17.9857 63.6196 17.827C63.825 17.6637 63.9463 17.491 63.9836 17.309V15.881C63.9183 15.8857 63.797 15.902 63.6196 15.93C63.4423 15.9533 63.2533 15.9813 63.0526 16.014C62.852 16.042 62.6746 16.0723 62.5206 16.105C61.9326 16.2217 61.522 16.371 61.2886 16.553C61.06 16.735 60.9456 16.9893 60.9456 17.316C60.9456 17.638 61.046 17.8947 61.2466 18.086C61.452 18.2727 61.746 18.366 62.1286 18.366Z" fill="#19191C"/>
<path d="M67.9122 19.5V9.322H74.1282V10.652H68.7872L69.4872 10.001V14.187L68.7942 13.683H73.5331V15.013H69.2772L69.4872 14.607V19.5H67.9122Z" fill="#19191C"/>
<path d="M79.5057 19.605C78.829 19.605 78.2387 19.4557 77.7347 19.157C77.2307 18.8537 76.8387 18.408 76.5587 17.82C76.2787 17.2273 76.1387 16.4993 76.1387 15.636C76.1387 14.8193 76.2857 14.1193 76.5797 13.536C76.8737 12.948 77.275 12.4977 77.7837 12.185C78.2924 11.8677 78.8664 11.709 79.5057 11.709C80.201 11.709 80.8007 11.8677 81.3047 12.185C81.8087 12.4977 82.196 12.948 82.4667 13.536C82.7373 14.1193 82.8727 14.8193 82.8727 15.636C82.8727 16.4993 82.721 17.2273 82.4177 17.82C82.119 18.408 81.7153 18.8537 81.2067 19.157C80.698 19.4557 80.131 19.605 79.5057 19.605ZM79.5057 18.254C80.0284 18.254 80.453 18.0487 80.7797 17.638C81.111 17.2227 81.2767 16.5553 81.2767 15.636C81.2767 14.7867 81.118 14.145 80.8007 13.711C80.488 13.277 80.0564 13.06 79.5057 13.06C78.9784 13.06 78.5514 13.2747 78.2247 13.704C77.898 14.1287 77.7347 14.7727 77.7347 15.636C77.7347 16.5087 77.898 17.1643 78.2247 17.603C78.556 18.037 78.983 18.254 79.5057 18.254Z" fill="#19191C"/>
<path d="M84.6872 19.5V18.268H90.1402V19.5H84.6872ZM84.6522 13.284V11.842H86.9482V13.284H84.6522ZM86.1012 19.36V13.956C86.1012 13.7227 86.1479 13.5593 86.2412 13.466C86.3345 13.3727 86.4932 13.312 86.7172 13.284L86.1012 12.696V11.842H87.4312L87.5572 13.9C87.6645 13.452 87.8419 13.0647 88.0892 12.738C88.3412 12.4067 88.6375 12.1523 88.9782 11.975C89.3235 11.793 89.6806 11.702 90.0492 11.702C90.6699 11.702 91.1459 11.9377 91.4772 12.409C91.8085 12.8757 91.9579 13.5967 91.9252 14.572H90.3992C90.3899 14.0633 90.3106 13.7017 90.1612 13.487C90.0119 13.2677 89.7319 13.158 89.3212 13.158C89.0039 13.158 88.6819 13.2723 88.3552 13.501C88.0332 13.7297 87.8045 13.991 87.6692 14.285V17.687C87.6692 17.855 87.6319 17.9857 87.5572 18.079C87.4872 18.1677 87.3822 18.2307 87.2422 18.268L87.6692 18.569V19.36H86.1012Z" fill="#19191C"/>
<path d="M96.9037 19.633C96.1757 19.633 95.5504 19.4673 95.0277 19.136C94.5051 18.8 94.1014 18.3333 93.8167 17.736C93.5367 17.1387 93.3967 16.4457 93.3967 15.657C93.3967 14.8263 93.5391 14.117 93.8237 13.529C94.1131 12.941 94.5097 12.493 95.0137 12.185C95.5177 11.8723 96.0964 11.716 96.7497 11.716C97.4171 11.716 97.9794 11.8537 98.4367 12.129C98.8941 12.4043 99.2371 12.7683 99.4657 13.221C99.6991 13.669 99.8087 14.1613 99.7947 14.698H98.2687C98.2687 14.4553 98.2361 14.2337 98.1707 14.033C98.1101 13.8323 98.0167 13.6573 97.8907 13.508C97.7647 13.3587 97.6061 13.2443 97.4147 13.165C97.2281 13.081 97.0087 13.039 96.7567 13.039C96.1174 13.0343 95.6601 13.27 95.3847 13.746C95.1094 14.222 94.9717 14.8473 94.9717 15.622C94.9717 16.5133 95.1351 17.183 95.4617 17.631C95.7884 18.079 96.2831 18.303 96.9457 18.303C97.1931 18.303 97.4171 18.2633 97.6177 18.184C97.8184 18.1 97.9794 17.9833 98.1007 17.834C98.2267 17.6847 98.2967 17.5097 98.3107 17.309H99.7877C99.8017 17.7943 99.6711 18.212 99.3957 18.562C99.1204 18.9073 98.7611 19.1733 98.3177 19.36C97.8744 19.542 97.4031 19.633 96.9037 19.633Z" fill="#19191C"/>
<path d="M105.389 19.605C104.722 19.605 104.125 19.4557 103.597 19.157C103.075 18.8537 102.662 18.408 102.358 17.82C102.055 17.232 101.903 16.511 101.903 15.657C101.903 14.817 102.048 14.103 102.337 13.515C102.627 12.927 103.019 12.479 103.513 12.171C104.013 11.863 104.573 11.709 105.193 11.709C106.141 11.709 106.908 12.0147 107.496 12.626C108.084 13.2373 108.378 14.1147 108.378 15.258C108.378 15.4167 108.374 15.5427 108.364 15.636C108.355 15.7247 108.348 15.8367 108.343 15.972H103.429C103.439 16.5273 103.539 16.9753 103.73 17.316C103.926 17.652 104.174 17.897 104.472 18.051C104.776 18.2003 105.091 18.275 105.417 18.275C105.777 18.275 106.066 18.212 106.285 18.086C106.505 17.96 106.673 17.708 106.789 17.33H108.217C108.166 17.8153 108.014 18.2283 107.762 18.569C107.515 18.9097 107.188 19.1687 106.782 19.346C106.376 19.5187 105.912 19.605 105.389 19.605ZM103.436 15.391C103.474 15.1857 103.56 15.0457 103.695 14.971C103.831 14.8963 104.017 14.859 104.255 14.859H106.789C106.775 14.2663 106.647 13.816 106.404 13.508C106.162 13.1953 105.777 13.039 105.249 13.039C104.657 13.039 104.206 13.2513 103.898 13.676C103.59 14.1007 103.436 14.6723 103.436 15.391Z" fill="#19191C"/>
<path d="M122.248 19.64C121.534 19.64 120.904 19.5327 120.358 19.318C119.812 19.0987 119.383 18.7487 119.07 18.268C118.762 17.7827 118.601 17.1433 118.587 16.35H120.113C120.127 16.8447 120.239 17.2297 120.449 17.505C120.659 17.7803 120.93 17.974 121.261 18.086C121.593 18.1933 121.945 18.247 122.318 18.247C122.734 18.247 123.084 18.184 123.368 18.058C123.653 17.932 123.868 17.7663 124.012 17.561C124.162 17.351 124.236 17.1293 124.236 16.896C124.236 16.5507 124.157 16.273 123.998 16.063C123.84 15.8483 123.592 15.664 123.256 15.51C122.92 15.356 122.489 15.1997 121.961 15.041C121.397 14.8683 120.888 14.6397 120.435 14.355C119.983 14.0657 119.626 13.7157 119.364 13.305C119.103 12.8943 118.972 12.423 118.972 11.891C118.972 11.275 119.126 10.7663 119.434 10.365C119.742 9.959 120.148 9.658 120.652 9.462C121.161 9.26133 121.707 9.161 122.29 9.161C123.172 9.161 123.9 9.40133 124.474 9.882C125.048 10.3627 125.394 11.0977 125.51 12.087H124.047C124.005 11.765 123.907 11.4897 123.753 11.261C123.599 11.0323 123.394 10.8573 123.137 10.736C122.885 10.6147 122.58 10.554 122.22 10.554C121.707 10.554 121.287 10.6613 120.96 10.876C120.634 11.086 120.47 11.4033 120.47 11.828C120.47 12.122 120.519 12.3787 120.617 12.598C120.715 12.8127 120.911 13.0133 121.205 13.2C121.499 13.382 121.938 13.5757 122.521 13.781C122.941 13.9257 123.345 14.0797 123.732 14.243C124.12 14.4017 124.465 14.5907 124.768 14.81C125.072 15.0293 125.312 15.3 125.489 15.622C125.667 15.9393 125.755 16.3337 125.755 16.805C125.76 17.393 125.611 17.8993 125.307 18.324C125.004 18.7487 124.586 19.0753 124.054 19.304C123.527 19.528 122.925 19.64 122.248 19.64Z" fill="#19191C"/>
<path d="M131.546 19.612C131.159 19.612 130.783 19.5467 130.419 19.416C130.055 19.2853 129.754 19.0613 129.516 18.744C129.283 18.422 129.166 17.981 129.166 17.421V14.348C129.166 14.25 129.187 14.1193 129.229 13.956C129.276 13.7927 129.353 13.641 129.46 13.501C129.572 13.361 129.728 13.2793 129.929 13.256L129.166 12.164L129.201 11.968L129.572 9.182H130.804V17.043C130.804 17.519 130.902 17.8223 131.098 17.953C131.299 18.0837 131.616 18.149 132.05 18.149C132.307 18.149 132.538 18.135 132.743 18.107C132.948 18.0743 133.137 18.0323 133.31 17.981C133.487 17.925 133.655 17.8643 133.814 17.799V19.276C133.487 19.3927 133.149 19.4767 132.799 19.528C132.449 19.584 132.031 19.612 131.546 19.612ZM127.521 13.256V11.856H133.247V13.256H127.521Z" fill="#19191C"/>
<path d="M138.505 19.654C137.871 19.654 137.348 19.423 136.937 18.961C136.527 18.4943 136.321 17.8363 136.321 16.987V11.856H137.882V16.728C137.882 17.2647 137.978 17.645 138.169 17.869C138.365 18.0883 138.685 18.198 139.128 18.198C139.488 18.198 139.812 18.0953 140.101 17.89C140.395 17.6847 140.601 17.4537 140.717 17.197V11.856H142.292V19.5H140.955L140.773 16.616L140.899 17.197C140.843 17.617 140.734 18.0137 140.57 18.387C140.407 18.7603 140.16 19.066 139.828 19.304C139.502 19.5373 139.061 19.654 138.505 19.654Z" fill="#19191C"/>
<path d="M147.236 19.584C146.676 19.584 146.181 19.43 145.752 19.122C145.327 18.814 144.994 18.366 144.751 17.778C144.513 17.1853 144.394 16.4667 144.394 15.622C144.394 14.8287 144.532 14.1403 144.807 13.557C145.087 12.9737 145.463 12.521 145.934 12.199C146.41 11.877 146.94 11.716 147.523 11.716C147.854 11.716 148.146 11.7837 148.398 11.919C148.65 12.0497 148.86 12.2293 149.028 12.458C149.196 12.6867 149.317 12.9503 149.392 13.249L149.896 13.473L149.357 14.222C149.306 13.942 149.203 13.7157 149.049 13.543C148.9 13.3703 148.729 13.2443 148.538 13.165C148.351 13.0857 148.176 13.046 148.013 13.046C147.416 13.046 146.93 13.277 146.557 13.739C146.184 14.1963 145.997 14.831 145.997 15.643C145.997 16.189 146.067 16.6603 146.207 17.057C146.347 17.4537 146.55 17.7617 146.816 17.981C147.082 18.1957 147.406 18.303 147.789 18.303C147.98 18.303 148.181 18.2633 148.391 18.184C148.601 18.1 148.79 17.967 148.958 17.785C149.131 17.5983 149.247 17.3533 149.308 17.05L149.378 17.568L149.315 17.792C149.273 18.1093 149.149 18.4057 148.944 18.681C148.743 18.9517 148.491 19.171 148.188 19.339C147.889 19.5023 147.572 19.584 147.236 19.584ZM149.329 19.5L149.308 17.05V8.608H150.876V19.5H149.329Z" fill="#19191C"/>
<path d="M156.197 19.29V14.152C156.197 13.9467 156.242 13.7553 156.33 13.578C156.419 13.4007 156.613 13.3027 156.911 13.284L156.197 12.969L156.12 12.36L157.744 11.863L157.716 19.29H156.197ZM153.803 19.5V18.268H159.886V19.5H153.803ZM153.453 13.284V11.863H157.744L157.219 13.284H153.453ZM156.876 10.582C156.559 10.582 156.288 10.4747 156.064 10.26C155.84 10.0453 155.728 9.763 155.728 9.413C155.728 9.05367 155.84 8.76433 156.064 8.545C156.288 8.32567 156.559 8.216 156.876 8.216C157.194 8.216 157.464 8.32567 157.688 8.545C157.912 8.76433 158.024 9.05367 158.024 9.413C158.024 9.763 157.912 10.0453 157.688 10.26C157.464 10.4747 157.194 10.582 156.876 10.582Z" fill="#19191C"/>
<path d="M164.851 19.605C164.174 19.605 163.584 19.4557 163.08 19.157C162.576 18.8537 162.184 18.408 161.904 17.82C161.624 17.2273 161.484 16.4993 161.484 15.636C161.484 14.8193 161.631 14.1193 161.925 13.536C162.219 12.948 162.62 12.4977 163.129 12.185C163.638 11.8677 164.212 11.709 164.851 11.709C165.546 11.709 166.146 11.8677 166.65 12.185C167.154 12.4977 167.541 12.948 167.812 13.536C168.083 14.1193 168.218 14.8193 168.218 15.636C168.218 16.4993 168.066 17.2273 167.763 17.82C167.464 18.408 167.061 18.8537 166.552 19.157C166.043 19.4557 165.476 19.605 164.851 19.605ZM164.851 18.254C165.374 18.254 165.798 18.0487 166.125 17.638C166.456 17.2227 166.622 16.5553 166.622 15.636C166.622 14.7867 166.463 14.145 166.146 13.711C165.833 13.277 165.402 13.06 164.851 13.06C164.324 13.06 163.897 13.2747 163.57 13.704C163.243 14.1287 163.08 14.7727 163.08 15.636C163.08 16.5087 163.243 17.1643 163.57 17.603C163.901 18.037 164.328 18.254 164.851 18.254Z" fill="#19191C"/>
</svg>
